<svg width="32" height="32" xmlns="http://www.w3.org/2000/svg">

 <title/>
 <g>
  <title>background</title>
  <rect fill="none" id="canvas_background" height="402" width="582" y="-1" x="-1"/>
 </g>
 <g>
  <title>Layer 1</title>
  <path fill="#ff7828" id="svg_1" d="m25,31l-18,0a3,3 0 0 1 -3,-3l0,-11a3,3 0 0 1 3,-3l18,0a3,3 0 0 1 3,3l0,11a3,3 0 0 1 -3,3zm-18,-15a1,1 0 0 0 -1,1l0,11a1,1 0 0 0 1,1l18,0a1,1 0 0 0 1,-1l0,-11a1,1 0 0 0 -1,-1l-18,0z" class="cls-1"/>
  <path fill="#ff7828" id="svg_2" d="m24,16l-16,0a1,1 0 0 1 -1,-1l0,-6a8,8 0 0 1 8,-8l2,0a8,8 0 0 1 8,8l0,6a1,1 0 0 1 -1,1zm-15,-2l14,0l0,-5a6,6 0 0 0 -6,-6l-2,0a6,6 0 0 0 -6,6l0,5z" class="cls-1"/>
 </g>
</svg>